# xmcd
#
# Track frame offsets: 
#        150
#        18558
#        35517
#        53287
#        71907
#        88714
#        109427
#        126414
#        144172
#        162412
#        177789
#        195935
#        213086
#        228831
#        243609
#
# Disc length: 3514 seconds
#
# Revision: 5
# Processed by: cddbd v1.5.2PL0 Copyright (c) Steve Scherf et al.
# Submitted via: ExactAudioCopy v0.99pb3
#
DISCID=ca0db80f
DTITLE=Matogrosso e Mathias - Ao Vivo Convida
DYEAR=2004
DGENRE=Sertanejo
TTITLE0=Idas e Voltas
TTITLE1=Pele de Maca
TTITLE2=De Igual Pra Igual
TTITLE3=Tentei Te Esquecer
TTITLE4=Boite Azul
TTITLE5=Frente a Frente
TTITLE6=Sabado
TTITLE7=Enquanto Sol Brilhar (Amor Sem Fim)
TTITLE8=Memorias
TTITLE9=Eu Ainda Te Amo
TTITLE10=Na Hora do Adeus
TTITLE11=24 Horas de Amor
TTITLE12=Espinhos da Vida
TTITLE13=Porque
TTITLE14=Vida de Pescador
EXTD=
EXTT0=
EXTT1=
EXTT2=
EXTT3=
EXTT4=
EXTT5=
EXTT6=
EXTT7=
EXTT8=
EXTT9=
EXTT10=
EXTT11=
EXTT12=
EXTT13=
EXTT14=
PLAYORDER=
